<svg
	width="10"
	height="10"
	fill="#0288d1"
	viewBox="0 0 24 24"
	xmlns="http://www.w3.org/2000/svg"
>
	<path d="M16.975 3.055a.6.6 0 0 1 .85 0l3.6 3.6a.6.6 0 0 1 0 .85l-12 12a.601.601 0 0 1-.202.132l-6 2.4a.6.6 0 0 1-.78-.78l2.4-6a.6.6 0 0 1 .132-.202l12-12ZM15.85 5.88l2.75 2.752 1.552-1.552L17.4 4.328 15.85 5.88Zm1.903 3.6L15 6.728l-7.8 7.8v.352h.6a.6.6 0 0 1 .6.6v.6H9a.6.6 0 0 1 .6.6v.6h.352l7.8-7.8ZM6.039 15.69l-.128.127-1.833 4.585 4.585-1.833.127-.127a.599.599 0 0 1-.39-.562v-.6h-.6a.6.6 0 0 1-.6-.6v-.6h-.6a.6.6 0 0 1-.561-.39Z"></path>
</svg>
