<svg width="30" height="30" fill="#D71313" viewBox="0 0 24 24" xmlns="http://www.w3.org/2000/svg">
  <path d="M5.88 4.08a1.2 1.2 0 0 0-1.2 1.2v1.2a1.2 1.2 0 0 0 1.2 1.2h.6v10.8a2.4 2.4 0 0 0 2.4 2.4h7.2a2.4 2.4 0 0 0 2.4-2.4V7.68h.6a1.2 1.2 0 0 0 1.2-1.2v-1.2a1.2 1.2 0 0 0-1.2-1.2h-4.2a1.2 1.2 0 0 0-1.2-1.2h-2.4a1.2 1.2 0 0 0-1.2 1.2h-4.2Zm3.6 4.8a.6.6 0 0 1 .6.6v8.4a.6.6 0 1 1-1.2 0v-8.4a.6.6 0 0 1 .6-.6Zm3 0a.6.6 0 0 1 .6.6v8.4a.6.6 0 1 1-1.2 0v-8.4a.6.6 0 0 1 .6-.6Zm3.6.6v8.4a.6.6 0 1 1-1.2 0v-8.4a.6.6 0 1 1 1.2 0Z"></path>
</svg>