<svg version="1.1" id="Layer_1" xmlns="http://www.w3.org/2000/svg" xmlns:xlink="http://www.w3.org/1999/xlink" x="0px" y="0px"
	 width="100%" viewBox="0 0 500 500" enable-background="new 0 0 500 500" xml:space="preserve">
<path fill="#FFFFFF" opacity="1.000000" stroke="none" 
	d="
M501.000000,177.000000 
	C501.000000,285.333313 501.000000,393.166595 501.000000,500.999939 
	C334.333405,500.999939 167.666794,500.999939 1.000147,500.999969 
	C1.000098,334.333435 1.000098,167.666870 1.000049,1.000237 
	C167.666519,1.000158 334.333038,1.000158 500.999786,1.000079 
	C501.000000,59.500000 501.000000,118.000000 501.000000,177.000000 
M350.225891,59.319138 
	C310.412842,38.853909 268.148682,31.703867 223.890106,37.054623 
	C181.322937,42.200890 143.201706,58.548073 111.077072,86.943871 
	C50.955795,140.086594 26.279860,207.136398 38.320217,286.348907 
	C47.183559,344.660065 77.062042,391.355652 124.808327,425.969482 
	C172.506287,460.548309 226.130844,472.711517 284.145691,464.005371 
	C342.786102,455.205383 389.994598,426.193512 424.917816,378.542145 
	C464.042877,325.157532 475.879303,265.207825 460.706451,200.994614 
	C445.730804,137.616165 408.094086,90.777451 350.225891,59.319138 
z"/>
<path fill="#050403" opacity="1.000000" stroke="none" 
	d="
M350.535553,59.524445 
	C408.094086,90.777451 445.730804,137.616165 460.706451,200.994614 
	C475.879303,265.207825 464.042877,325.157532 424.917816,378.542145 
	C389.994598,426.193512 342.786102,455.205383 284.145691,464.005371 
	C226.130844,472.711517 172.506287,460.548309 124.808327,425.969482 
	C77.062042,391.355652 47.183559,344.660065 38.320217,286.348907 
	C26.279860,207.136398 50.955795,140.086594 111.077072,86.943871 
	C143.201706,58.548073 181.322937,42.200890 223.890106,37.054623 
	C268.148682,31.703867 310.412842,38.853909 350.535553,59.524445 
M427.067322,148.444977 
	C416.904572,130.851013 404.242065,115.248253 389.288696,101.534149 
	C353.209869,68.445366 310.795776,50.315479 261.804016,47.809189 
	C221.510712,45.747883 183.701340,54.293644 148.837784,74.743088 
	C70.054405,120.954025 31.025751,210.641464 53.618793,301.168060 
	C76.846901,394.239288 164.020355,463.619537 271.789856,453.670319 
	C308.639771,450.268372 342.502747,437.476379 371.984589,414.797882 
	C432.280090,368.416290 459.173859,306.730560 453.683624,231.138321 
	C451.558380,201.876633 442.102692,174.545242 427.067322,148.444977 
z"/>
<path fill="#F47C0A" opacity="1.000000" stroke="none" 
	d="
M427.237854,148.771606 
	C442.102692,174.545242 451.558380,201.876633 453.683624,231.138321 
	C459.173859,306.730560 432.280090,368.416290 371.984589,414.797882 
	C342.502747,437.476379 308.639771,450.268372 271.789856,453.670319 
	C164.020355,463.619537 76.846901,394.239288 53.618793,301.168060 
	C31.025751,210.641464 70.054405,120.954025 148.837784,74.743088 
	C183.701340,54.293644 221.510712,45.747883 261.804016,47.809189 
	C310.795776,50.315479 353.209869,68.445366 389.288696,101.534149 
	C404.242065,115.248253 416.904572,130.851013 427.237854,148.771606 
M437.815552,314.234772 
	C448.348694,282.316406 451.138885,249.756821 445.014984,216.679672 
	C434.159332,158.044830 403.367340,112.353531 352.225739,82.042381 
	C293.028381,46.956676 230.389740,43.120575 168.151764,72.496040 
	C98.228531,105.498840 60.035282,162.596344 54.412815,239.666138 
	C50.535797,292.810181 67.027817,340.546326 102.582344,380.441895 
	C150.517334,434.229523 211.388657,456.960938 282.231140,445.308502 
	C358.647675,432.739197 410.174164,387.513123 437.815552,314.234772 
z"/>
<path fill="#030302" opacity="1.000000" stroke="none" 
	d="
M437.661743,314.597229 
	C410.174164,387.513123 358.647675,432.739197 282.231140,445.308502 
	C211.388657,456.960938 150.517334,434.229523 102.582344,380.441895 
	C67.027817,340.546326 50.535797,292.810181 54.412815,239.666138 
	C60.035282,162.596344 98.228531,105.498840 168.151764,72.496040 
	C230.389740,43.120575 293.028381,46.956676 352.225739,82.042381 
	C403.367340,112.353531 434.159332,158.044830 445.014984,216.679672 
	C451.138885,249.756821 448.348694,282.316406 437.661743,314.597229 
M155.940216,162.445282 
	C126.014397,195.762344 114.979164,234.609879 124.127373,278.309662 
	C138.304169,346.030426 203.594421,392.513916 276.463989,378.445618 
	C335.281677,367.090179 375.978027,317.222504 380.258942,262.735260 
	C383.308319,223.923370 371.903259,190.166504 345.358643,161.916107 
	C320.513702,135.474609 289.527863,121.586212 253.161560,121.468033 
	C240.671600,121.427444 227.808243,122.823196 215.755539,125.995010 
	C192.686768,132.065857 172.873322,144.453644 155.940216,162.445282 
M355.698547,396.454498 
	C352.043701,393.255005 348.388855,390.055542 343.913513,386.137787 
	C353.751160,382.722778 353.230286,393.084320 358.503357,394.989685 
	C362.092377,392.359253 365.802856,389.639801 370.599915,386.123993 
	C365.263794,382.293945 360.637726,378.973511 355.321564,375.157806 
	C356.334534,371.118164 354.304810,366.762848 349.600952,363.969696 
	C344.765869,361.098602 340.646942,363.841248 336.780914,366.568146 
	C331.351410,370.397858 326.006378,374.347351 319.511475,379.052460 
	C330.461487,386.016754 336.663635,396.059784 340.802124,407.879150 
	C346.203857,403.864502 350.735809,400.496307 355.698547,396.454498 
M255.013367,416.494568 
	C255.013367,421.590790 255.013367,426.687012 255.013367,432.250000 
	C262.289368,431.197113 269.432709,430.565582 276.384155,429.052521 
	C284.511658,427.283508 288.261353,421.498596 287.887970,412.778839 
	C287.420959,401.872559 283.078217,395.001617 274.558563,394.566864 
	C266.589294,394.160217 258.520874,395.696411 250.374481,396.387878 
	C252.053986,403.440918 253.503128,409.526520 255.013367,416.494568 
M191.029572,89.505692 
	C192.727448,97.736565 194.425323,105.967438 196.200760,114.574242 
	C201.450409,113.155640 206.820068,111.704605 212.641083,110.131607 
	C211.853989,107.648300 211.400284,104.018707 210.559845,103.926834 
	C205.622391,103.387085 207.501877,99.506966 205.660858,96.303375 
	C215.261551,96.866348 211.404480,105.739067 215.720261,109.316689 
	C219.622070,108.246643 223.871643,107.081223 229.587509,105.513687 
	C225.892960,100.056519 222.711838,95.357742 219.343430,90.382317 
	C222.049637,87.210960 221.140976,82.876701 218.575256,78.887306 
	C216.078445,75.005005 212.099716,74.622871 207.899734,75.717873 
	C200.870331,77.550552 193.842789,79.390396 185.291382,81.625282 
	C187.586853,84.551758 189.219086,86.632652 191.029572,89.505692 
M320.376221,387.072632 
	C313.343323,381.724976 305.039429,382.053864 297.019684,387.999725 
	C292.142273,391.615814 289.983398,396.533417 291.325836,402.381500 
	C292.237793,406.354401 293.783447,410.328979 295.807404,413.867096 
	C299.375641,420.104706 304.992310,422.232483 311.963165,420.778046 
	C325.785889,417.894012 330.960815,408.213348 325.435181,395.237701 
	C324.283234,392.532593 322.427246,390.127319 320.376221,387.072632 
M168.814789,129.301270 
	C173.968353,126.296150 179.277756,123.523521 184.223328,120.208122 
	C187.810028,117.803665 190.367447,114.392601 188.538651,109.610825 
	C186.668991,104.722198 183.025833,103.071487 177.305801,104.931610 
	C180.347427,99.919350 181.410934,95.434082 177.033554,91.734955 
	C172.739746,88.106453 168.232834,89.984253 164.050949,92.248383 
	C158.249374,95.389412 152.565796,98.748367 145.615784,102.706520 
	C155.621277,110.497200 160.275528,120.868538 162.997986,132.508591 
	C165.304214,131.277176 166.756927,130.501480 168.814789,129.301270 
M355.580566,116.700073 
	C349.888184,122.050903 344.195831,127.401733 338.261200,132.980286 
	C343.038940,137.296478 347.868774,142.132690 353.188843,146.350464 
	C360.423981,152.086472 367.569183,150.851608 374.688599,143.232513 
	C381.958618,135.452225 382.724731,127.992203 376.350616,121.171768 
	C371.735229,116.233246 366.507446,111.867043 360.735779,106.483566 
	C358.977509,110.102898 357.521118,113.100899 355.580566,116.700073 
M209.167191,423.781738 
	C209.876282,425.102631 210.385086,427.381866 211.329010,427.579163 
	C215.502914,428.451538 219.801956,428.725159 225.539703,429.386597 
	C224.639191,426.146851 223.842178,423.830597 223.408173,421.448242 
	C223.233261,420.488159 223.887375,418.477966 224.106232,418.486206 
	C226.004120,418.557556 227.914307,418.891083 229.743134,419.416809 
	C229.956390,419.478058 229.975739,421.309082 229.606537,422.094788 
	C228.522568,424.401611 227.197342,426.595154 225.587479,429.522400 
	C232.836243,430.471680 238.511017,431.214813 244.559509,432.006897 
	C244.772247,429.567902 245.359161,427.536011 245.034256,425.662262 
	C244.145050,420.534241 242.767197,415.493042 241.781189,410.379211 
	C240.841934,405.507965 241.781998,398.850708 238.912643,396.160919 
	C235.814301,393.256378 229.258255,394.036011 224.207153,393.229523 
	C223.897751,393.180145 223.558975,393.314667 223.429367,393.334167 
	C218.680893,403.279541 213.982544,413.119904 209.167191,423.781738 
M134.130798,361.075012 
	C133.635788,359.807800 133.140793,358.540619 132.603577,357.165375 
	C134.333633,355.684570 135.911835,354.333740 137.591873,352.895752 
	C138.919754,354.433838 139.957214,355.635498 141.079468,356.935425 
	C139.468369,358.471497 138.168854,359.710510 136.575790,361.229431 
	C138.903427,363.839508 141.077911,366.277863 143.391434,368.872131 
	C146.923264,365.656830 150.217880,362.657501 153.688995,359.497467 
	C146.719315,351.770874 139.952240,344.268890 132.402161,335.898865 
	C126.277069,347.176575 117.423721,354.877380 105.909805,359.962524 
	C113.459373,368.323242 120.228294,375.819397 127.145325,383.479614 
	C131.009476,379.999268 134.530685,376.827850 138.133224,373.583160 
	C135.720123,370.885681 133.616486,368.534119 131.417526,366.075989 
	C129.501724,367.576172 127.705910,368.982361 125.723930,370.534363 
	C124.501137,369.137634 123.447609,367.934235 122.269585,366.588623 
	C124.321861,364.750610 126.153244,363.110443 128.442001,361.060638 
	C130.081543,364.960480 131.904877,363.763550 134.130798,361.075012 
M384.567474,347.908234 
	C382.868103,349.913879 381.168701,351.919525 379.343536,354.073578 
	C381.192200,355.799438 382.735962,357.240662 384.586823,358.968567 
	C383.363403,360.371979 382.258881,361.639008 381.020142,363.059967 
	C378.793457,361.098389 376.945557,359.470490 375.097626,357.842621 
	C375.645935,357.572418 376.194244,357.302216 376.742554,357.032043 
	C376.060547,355.167572 375.378540,353.303101 374.565979,351.081726 
	C372.641052,352.567902 371.652527,353.331146 370.603668,354.140930 
	C368.787354,352.563812 367.189453,351.176300 365.413422,349.634094 
	C366.794586,348.152100 367.886902,346.980072 369.074249,345.706055 
	C370.730835,347.019836 372.132965,348.131836 373.884430,349.520874 
	C376.102081,346.910339 378.210175,344.428741 380.485107,341.750793 
	C376.803009,338.618896 373.432556,335.752136 369.916107,332.761169 
	C363.053375,340.849243 356.499023,348.573914 349.236328,357.133362 
	C361.379517,361.376312 369.965271,369.457428 376.737671,380.003662 
	C384.046631,371.368164 390.563568,363.668427 397.587769,355.369385 
	C393.060089,352.471436 389.046906,349.902802 384.567474,347.908234 
M408.390686,337.810852 
	C409.714844,334.611877 411.368530,331.503967 412.283936,328.192017 
	C413.573792,323.525360 411.840149,319.700806 407.792023,317.016785 
	C403.447510,314.136322 399.044434,313.996124 394.830597,317.188599 
	C391.932343,319.384430 389.226379,321.834015 386.434448,324.170166 
	C385.965668,323.789459 385.496887,323.408783 385.028107,323.028076 
	C387.852692,319.234619 390.677307,315.441132 393.563995,311.564270 
	C385.178467,306.535980 384.564453,306.549591 379.756378,313.824554 
	C377.769470,316.830933 376.299377,320.228790 374.941895,323.589050 
	C373.120850,328.096954 374.141510,332.099213 378.018799,335.168030 
	C382.432190,338.661102 386.742340,338.959778 391.357422,335.859528 
	C393.688232,334.293793 395.602631,332.109436 397.928375,330.534149 
	C398.860077,329.903168 400.391663,330.157898 401.650208,330.009460 
	C401.122986,331.289825 400.786072,333.547943 400.037964,333.693573 
	C394.780914,334.716858 395.419800,339.672607 392.950836,342.758728 
	C395.882721,344.284180 398.350342,345.568085 401.328796,347.117737 
	C403.610748,344.167511 405.821381,341.309509 408.390686,337.810852 
M153.112137,390.693756 
	C151.736740,390.319275 149.198578,390.029449 149.164215,389.557373 
	C148.782898,384.318176 143.940109,383.922211 140.979645,380.998932 
	C139.017761,383.774689 137.339401,386.149292 135.577042,388.642761 
	C140.558624,394.660614 145.633194,399.834137 152.862808,402.250580 
	C157.976746,403.959869 161.935028,402.643280 165.152451,398.378204 
	C168.631363,393.766449 168.414536,389.679993 164.497055,383.734100 
	C163.008255,381.474426 161.686066,379.105011 160.287933,376.785614 
	C160.748108,376.466919 161.208282,376.148193 161.668457,375.829498 
	C165.018936,379.136505 168.369415,382.443481 171.972458,385.999756 
	C174.087631,382.958618 175.499390,380.928864 177.712097,377.747467 
	C173.169281,373.982910 168.953995,369.813599 164.090454,366.636780 
	C158.469879,362.965485 153.707153,363.680206 150.070068,367.567963 
	C146.067352,371.846558 145.677887,376.565125 148.882492,382.193146 
	C150.347244,384.765594 151.839981,387.322144 153.112137,390.693756 
M318.842346,83.811310 
	C315.650024,82.568901 312.457733,81.326492 309.374573,80.126564 
	C301.986206,89.687431 294.853516,98.917488 287.333618,108.648544 
	C292.749847,110.759956 297.302887,112.534882 302.981873,114.748741 
	C302.981873,111.488724 302.867859,109.056854 303.042297,106.645851 
	C303.105377,105.773857 304.067444,104.175018 304.265625,104.228111 
	C306.092224,104.717453 307.873108,105.434288 309.558289,106.297630 
	C309.709106,106.374901 309.318848,108.126373 308.791443,108.792969 
	C307.240265,110.753532 305.493439,112.559280 303.352264,114.951859 
	C309.974457,117.495346 315.044220,119.442574 321.159424,121.791344 
	C322.182770,109.400803 323.152802,97.655365 324.124725,85.887360 
	C322.343414,85.155426 320.974213,84.592819 318.842346,83.811310 
M144.557739,145.940781 
	C143.016281,145.206131 141.407639,144.581207 139.959320,143.694473 
	C139.129089,143.186172 137.873108,141.728668 137.977951,141.591385 
	C139.059952,140.174606 140.307205,138.843887 141.719269,137.765182 
	C141.917221,137.613953 143.562012,138.785294 143.994720,139.624176 
	C145.110870,141.788101 145.923126,144.108734 147.131989,147.032288 
	C151.859634,141.928253 155.662460,137.822647 159.914993,133.231537 
	C150.312668,127.689255 140.125412,121.809357 129.498215,115.675529 
	C125.871834,119.559937 122.276909,123.410652 118.551048,127.401619 
	C123.873871,137.612305 129.278763,147.980408 134.921112,158.804031 
	C138.690811,155.211288 141.870300,152.301620 144.861404,149.209732 
	C145.350204,148.704453 145.008194,147.395416 144.557739,145.940781 
M367.103302,157.679977 
	C366.856049,158.477325 366.140320,159.578812 366.431183,160.026810 
	C371.565216,167.934937 376.821930,175.763412 382.166870,183.781219 
	C386.359375,180.980026 390.178894,178.428055 394.086670,175.817108 
	C392.103180,172.867874 390.374908,170.298111 388.606018,167.667923 
	C386.423035,168.960648 384.605377,170.037048 382.566589,171.244415 
	C381.619293,169.657593 380.824799,168.326721 379.935944,166.837799 
	C382.141205,165.383530 384.049866,164.124817 386.297760,162.642410 
	C387.022766,163.810501 387.680847,164.870789 388.338928,165.931061 
	C388.976746,165.804321 389.614532,165.677567 390.252350,165.550827 
	C390.834991,163.514801 391.417633,161.478775 392.229340,158.642212 
	C392.960876,158.176682 394.624664,157.117859 396.460876,155.949326 
	C397.414490,157.489792 398.263733,158.861694 399.150909,160.294846 
	C397.531891,161.507751 396.112488,162.571091 394.350555,163.891022 
	C396.189423,166.622482 397.910919,169.179657 399.821411,172.017517 
	C403.621094,169.487656 407.178619,167.119034 410.975403,164.591125 
	C405.382812,156.184708 399.922699,147.977402 393.997772,139.071442 
	C390.928864,142.367737 388.573822,145.450287 385.676575,147.888626 
	C380.419891,152.312714 374.348297,155.395660 367.103302,157.679977 
M268.934875,106.841415 
	C284.010651,108.509521 285.384766,107.587601 286.112091,95.284920 
	C286.129242,94.994476 285.929596,94.691216 285.740417,94.120407 
	C282.606720,93.715179 279.370789,93.296738 276.098572,92.873604 
	C275.790802,94.040062 275.810059,95.042648 275.321533,95.600525 
	C274.212433,96.867004 272.853546,97.914734 271.596222,99.051392 
	C270.870056,97.618546 269.476593,96.153885 269.543091,94.758835 
	C269.740601,90.617348 270.300323,86.456322 271.194061,82.407928 
	C271.452667,81.236458 273.314819,80.418991 274.441864,79.439232 
	C275.298950,80.485825 276.418884,81.419937 276.930054,82.614548 
	C277.340485,83.573708 277.013092,84.848579 277.013092,86.303673 
	C280.464111,86.706894 283.697205,87.084656 286.845490,87.452507 
	C289.880005,76.339737 288.254059,73.740776 277.617065,71.956085 
	C277.288544,71.900970 276.956512,71.867317 276.627228,71.816452 
	C265.821869,70.147400 259.248962,74.143486 256.984528,83.759392 
	C254.048325,96.227951 257.341278,102.969810 268.934875,106.841415 
M95.138321,342.424408 
	C96.165382,343.227356 97.744293,344.917938 98.124969,344.681244 
	C99.869606,343.596558 101.346306,342.036041 102.780304,340.515350 
	C103.504387,339.747498 103.712059,338.322418 104.532166,337.843719 
	C108.977486,335.248993 113.516525,332.809540 118.087868,330.441254 
	C118.866585,330.037842 119.958321,330.238617 122.695038,330.012238 
	C116.683693,334.755951 120.522217,337.285400 122.451714,340.381775 
	C125.651009,338.621552 128.662125,336.964844 131.950211,335.155731 
	C126.361511,324.850830 120.954407,314.880737 115.474991,304.777313 
	C111.954788,306.718719 108.937393,308.382843 105.755180,310.137848 
	C107.043266,312.508667 108.135750,314.519470 109.031174,316.167572 
	C110.825981,316.386261 112.298866,316.565735 113.771744,316.745209 
	C108.533852,320.865753 103.176895,323.813446 97.792816,326.710724 
	C97.252930,327.001251 96.208260,327.312164 95.971680,327.064819 
	C92.183571,323.104218 90.643539,328.069794 87.699905,328.579163 
	C90.258385,333.284271 92.555771,337.509216 95.138321,342.424408 
M205.764328,388.785736 
	C197.377502,385.407410 188.990692,382.029114 180.394852,378.566589 
	C178.940079,382.258820 177.694839,385.419250 176.342514,388.851471 
	C178.808380,389.855133 180.937912,390.721924 182.910263,391.524719 
	C184.099823,390.484894 185.134628,389.580322 186.169434,388.675781 
	C186.618378,388.988983 187.067307,389.302216 187.516251,389.615448 
	C185.199860,395.510651 182.894012,401.410065 180.545288,407.292358 
	C180.374039,407.721283 179.835312,408.379791 179.562561,408.336212 
	C174.356323,407.504578 176.030624,412.207947 174.128006,414.561737 
	C180.262421,417.005920 186.019089,419.299591 192.336411,421.816681 
	C193.080536,419.130524 194.704346,415.502747 194.099152,415.082153 
	C190.782578,412.777100 193.223663,410.788971 193.925629,408.810608 
	C195.254486,405.065430 196.689682,401.347260 198.323776,397.727600 
	C198.816238,396.636780 200.112137,395.908630 201.040009,395.014343 
	C201.286926,396.248352 201.533859,397.482361 201.873291,399.178680 
	C203.686722,399.874817 205.933136,400.737213 208.390823,401.680664 
	C209.841217,397.972504 211.080231,394.804749 212.390579,391.454620 
	C210.145966,390.523499 208.325317,389.768250 205.764328,388.785736 
M434.181366,254.651260 
	C433.315582,252.330948 432.449799,250.010651 431.545258,247.586502 
	C437.144165,243.061966 436.990753,242.397110 428.890686,238.686020 
	C429.545685,237.084518 430.206543,235.468750 430.724640,234.202072 
	C428.979248,229.005508 425.730988,231.776382 423.075653,232.622025 
	C419.610352,224.296478 419.120026,224.178040 413.523224,230.195511 
	C413.020203,229.913910 412.463745,229.624802 411.929626,229.299011 
	C410.563202,228.465500 409.206696,227.615662 407.846222,226.772369 
	C406.994324,228.253220 406.309418,229.873062 405.232635,231.166733 
	C404.498260,232.049072 402.842438,233.260757 402.241699,232.974716 
	C399.064331,231.461670 397.660583,232.936798 396.641357,235.566055 
	C399.192780,240.099564 399.154175,240.025574 394.780396,242.308136 
	C393.958221,242.737213 393.058716,244.064041 393.129974,244.896576 
	C393.220764,245.957306 394.030945,247.448166 394.936737,247.858948 
	C398.162964,249.322006 398.493927,250.886688 395.993591,253.417923 
	C393.700958,255.738815 394.872467,258.810883 397.357025,258.317902 
	C403.966461,257.006500 402.965973,260.545380 401.722260,265.728058 
	C404.157166,265.351532 406.298492,265.616608 407.587921,264.692719 
	C410.020691,262.949615 411.270569,263.284454 412.690002,265.760559 
	C413.290131,266.807373 414.726868,268.047363 415.728180,268.001282 
	C416.721222,267.955566 418.136688,266.568329 418.503723,265.478699 
	C419.476685,262.590118 420.765869,262.241119 423.297821,263.793640 
	C424.285492,264.399231 426.245850,264.571167 427.060760,263.977142 
	C427.853485,263.399231 428.237305,261.459961 427.944244,260.343262 
	C427.070435,257.013641 428.289703,256.063080 431.434937,256.325378 
	C432.245239,256.392944 433.120392,255.682800 434.181366,254.651260 
M83.720947,230.594574 
	C77.737137,228.999496 79.558708,234.277039 78.417015,236.888046 
	C75.654449,237.895462 71.409378,233.513657 70.203667,239.755051 
	C72.581650,242.563599 73.958328,245.119171 67.984703,246.426727 
	C65.963211,246.869202 65.853027,250.473404 68.748840,251.771713 
	C71.970062,253.215942 71.591110,254.793030 69.656944,257.077301 
	C68.984863,257.871063 68.515068,259.512085 68.892883,260.333984 
	C69.292793,261.203949 70.886948,262.154022 71.828941,262.035065 
	C75.595413,261.559570 76.644806,262.987488 76.050407,266.571045 
	C75.892395,267.523651 76.785660,269.046234 77.652817,269.637177 
	C78.251724,270.045319 79.955132,269.638763 80.612625,269.014496 
	C83.363503,266.402740 84.956078,266.870728 86.490349,270.312317 
	C87.779785,273.204712 91.103355,272.933289 91.628654,270.625671 
	C93.099113,264.166046 96.003937,267.079285 99.960670,269.727203 
	C100.605812,267.447754 101.788719,265.562439 101.434937,264.032440 
	C100.735336,261.006805 101.473907,260.105072 104.474281,260.065247 
	C105.635399,260.049835 107.423363,259.122314 107.758698,258.190369 
	C108.113899,257.203156 107.456558,255.276733 106.583427,254.532135 
	C104.137695,252.446426 104.539337,251.248352 107.055016,249.643021 
	C107.987907,249.047714 108.845093,247.165283 108.577415,246.187088 
	C108.312012,245.217239 106.632713,244.563919 105.486160,243.929718 
	C104.690208,243.489426 103.746353,243.316528 102.908302,243.037415 
	C104.421951,235.691269 104.421951,235.691269 96.470589,235.702988 
	C95.227959,233.671555 94.241776,230.513763 93.019958,230.419785 
	C91.129753,230.274429 89.078575,232.221863 86.357483,233.676437 
	C86.010826,233.290512 85.082687,232.257233 83.720947,230.594574 
M106.143242,172.351166 
	C110.463104,176.004181 114.782967,179.657196 119.269455,183.451126 
	C123.135826,177.492264 126.657028,172.065353 130.372269,166.339417 
	C128.328720,165.003632 126.435402,163.766068 124.470985,162.482010 
	C123.163155,164.148315 122.070328,165.540665 120.886147,167.049438 
	C118.729332,165.635300 116.848587,164.402176 114.886925,163.115997 
	C116.139130,161.028885 117.139664,159.361237 118.317108,157.398727 
	C116.783478,156.485962 115.473412,155.706253 114.181099,154.937119 
	C112.751816,156.900131 111.604439,158.475952 110.365128,160.178055 
	C108.363914,158.880753 106.569633,157.717606 104.860146,156.609436 
	C105.245598,151.486282 108.282585,154.407669 110.318687,154.853745 
	C111.707321,152.649887 112.934464,150.702316 114.293747,148.545029 
	C111.047859,146.442276 108.015137,144.477600 104.687096,142.321609 
	C99.778618,149.869644 95.084351,157.088272 90.256111,164.512924 
	C91.886589,165.640594 93.514374,167.693741 94.834831,167.512146 
	C99.474609,166.874054 102.145409,170.105301 106.143242,172.351166 
M245.915924,81.683212 
	C245.972839,80.536079 245.889771,79.360619 246.115067,78.247566 
	C246.624130,75.732529 247.285492,73.248329 247.996429,70.287010 
	C241.252090,70.712860 236.016449,71.043457 229.675262,71.443855 
	C234.729858,82.932159 234.899628,94.235794 231.960251,106.085297 
	C238.537216,105.586929 243.929825,105.178299 249.094772,104.786926 
	C248.006836,97.102203 246.980164,89.850235 245.915924,81.683212 
M126.391983,111.206337 
	C126.454308,110.549713 126.516632,109.893089 126.677254,108.200775 
	C122.246529,112.982544 115.918739,115.397072 119.476761,123.434311 
	C121.699928,119.590889 123.923096,115.747459 126.391983,111.206337 
z"/>
<path fill="#FB820D" opacity="1.000000" stroke="none" 
	d="
M156.180786,162.186432 
	C172.873322,144.453644 192.686768,132.065857 215.755539,125.995010 
	C227.808243,122.823196 240.671600,121.427444 253.161560,121.468033 
	C289.527863,121.586212 320.513702,135.474609 345.358643,161.916107 
	C371.903259,190.166504 383.308319,223.923370 380.258942,262.735260 
	C375.978027,317.222504 335.281677,367.090179 276.463989,378.445618 
	C203.594421,392.513916 138.304169,346.030426 124.127373,278.309662 
	C114.979164,234.609879 126.014397,195.762344 156.180786,162.186432 
M252.842941,340.919373 
	C252.842941,329.821747 252.842941,318.724121 252.842941,307.528931 
	C240.882812,307.528931 229.520203,307.528931 217.925980,307.528931 
	C217.925980,319.216034 217.925980,330.527496 217.008331,341.985321 
	C201.326828,341.985321 185.645309,341.985321 169.204178,341.985321 
	C215.941605,385.349335 290.049347,382.694977 332.648956,341.836060 
	C305.588623,341.836060 279.211823,341.836060 252.842941,340.919373 
M328.438354,200.519119 
	C328.941528,207.492889 329.489349,214.463776 329.940277,221.440918 
	C332.066895,254.347031 334.157471,287.255463 336.285767,320.161438 
	C336.645081,325.716949 337.126129,331.264587 337.584229,337.251099 
	C380.603210,296.549072 389.742676,218.410141 338.966095,165.427368 
	C290.033264,114.368462 206.557053,116.204445 159.056793,169.861588 
	C111.843849,223.194168 123.500580,298.898132 163.740067,336.390198 
	C166.652054,306.508423 169.544586,276.826111 172.515900,246.335571 
	C185.657166,253.769714 198.106277,260.812286 211.329773,268.292938 
	C211.329773,260.549683 211.329773,253.840851 211.329773,246.420853 
	C224.486954,253.873032 236.990921,260.955231 250.372818,268.534698 
	C250.372818,260.743713 250.372818,253.911301 250.372818,246.378586 
	C262.243652,253.086105 273.333893,259.352570 284.940826,265.910950 
	C285.657684,255.306580 286.282532,245.374359 287.012054,235.449860 
	C287.888947,223.521255 288.854980,211.599197 290.605774,199.570557 
	C303.043396,199.606445 315.480988,199.642334 328.438354,200.519119 
z"/>
<path fill="#F9F9F9" opacity="1.000000" stroke="none" 
	d="
M355.483154,396.791321 
	C350.735809,400.496307 346.203857,403.864502 340.802124,407.879150 
	C336.663635,396.059784 330.461487,386.016754 319.511475,379.052460 
	C326.006378,374.347351 331.351410,370.397858 336.780914,366.568146 
	C340.646942,363.841248 344.765869,361.098602 349.600952,363.969696 
	C354.304810,366.762848 356.334534,371.118164 355.321564,375.157806 
	C360.637726,378.973511 365.263794,382.293945 370.599915,386.123993 
	C365.802856,389.639801 362.092377,392.359253 358.503357,394.989685 
	C353.230286,393.084320 353.751160,382.722778 343.913513,386.137787 
	C348.388855,390.055542 352.043701,393.255005 355.483154,396.791321 
M340.385406,380.475647 
	C341.645233,380.103851 342.905029,379.732025 344.164825,379.360229 
	C343.586639,377.772369 343.441864,375.569702 342.307861,374.770233 
	C341.182709,373.976990 339.061432,374.596649 336.357361,374.596649 
	C338.111328,377.155701 339.038177,378.507935 340.385406,380.475647 
z"/>
<path fill="#F9F9F9" opacity="1.000000" stroke="none" 
	d="
M254.982819,416.053345 
	C253.503128,409.526520 252.053986,403.440918 250.374481,396.387878 
	C258.520874,395.696411 266.589294,394.160217 274.558563,394.566864 
	C283.078217,395.001617 287.420959,401.872559 287.887970,412.778839 
	C288.261353,421.498596 284.511658,427.283508 276.384155,429.052521 
	C269.432709,430.565582 262.289368,431.197113 255.013367,432.250000 
	C255.013367,426.687012 255.013367,421.590790 254.982819,416.053345 
M266.785980,406.116028 
	C267.461517,411.655579 268.137085,417.195160 268.812622,422.734711 
	C269.285065,422.946594 269.757507,423.158508 270.229950,423.370392 
	C271.503418,422.042847 273.894928,420.679413 273.853638,419.394104 
	C273.689331,414.278503 272.943420,409.152802 271.962036,404.118744 
	C271.784515,403.208130 269.487976,402.710632 268.169708,402.022430 
	C267.668976,403.111755 267.168274,404.201080 266.785980,406.116028 
z"/>
<path fill="#F9F9F9" opacity="1.000000" stroke="none" 
	d="
M190.940430,89.109619 
	C189.219086,86.632652 187.586853,84.551758 185.291382,81.625282 
	C193.842789,79.390396 200.870331,77.550552 207.899734,75.717873 
	C212.099716,74.622871 216.078445,75.005005 218.575256,78.887306 
	C221.140976,82.876701 222.049637,87.210960 219.343430,90.382317 
	C222.711838,95.357742 225.892960,100.056519 229.587509,105.513687 
	C223.871643,107.081223 219.622070,108.246643 215.720261,109.316689 
	C211.404480,105.739067 215.261551,96.866348 205.660858,96.303375 
	C207.501877,99.506966 205.622391,103.387085 210.559845,103.926834 
	C211.400284,104.018707 211.853989,107.648300 212.641083,110.131607 
	C206.820068,111.704605 201.450409,113.155640 196.200760,114.574242 
	C194.425323,105.967438 192.727448,97.736565 190.940430,89.109619 
M208.270248,89.961525 
	C208.755478,84.429787 207.938400,83.582558 202.758850,84.785522 
	C204.434586,86.856239 201.431564,92.318512 208.270248,89.961525 
z"/>
<path fill="#F9F9F9" opacity="1.000000" stroke="none" 
	d="
M320.635956,387.328247 
	C322.427246,390.127319 324.283234,392.532593 325.435181,395.237701 
	C330.960815,408.213348 325.785889,417.894012 311.963165,420.778046 
	C304.992310,422.232483 299.375641,420.104706 295.807404,413.867096 
	C293.783447,410.328979 292.237793,406.354401 291.325836,402.381500 
	C289.983398,396.533417 292.142273,391.615814 297.019684,387.999725 
	C305.039429,382.053864 313.343323,381.724976 320.635956,387.328247 
M306.955261,404.555573 
	C307.627899,406.251495 307.969482,408.220734 309.074799,409.559418 
	C310.009094,410.690979 311.828369,411.091858 313.255981,411.816101 
	C313.805450,410.423584 315.122162,408.786987 314.770355,407.681213 
	C313.316040,403.110260 311.498901,398.633575 309.469299,394.283569 
	C309.033478,393.349548 306.677917,392.305176 306.052399,392.689209 
	C304.972961,393.351868 303.807709,395.231598 304.013519,396.356476 
	C304.482269,398.919098 305.760010,401.333771 306.955261,404.555573 
z"/>
<path fill="#F9F9F9" opacity="1.000000" stroke="none" 
	d="
M168.512207,129.513535 
	C166.756927,130.501480 165.304214,131.277176 162.997986,132.508591 
	C160.275528,120.868538 155.621277,110.497200 145.615784,102.706520 
	C152.565796,98.748367 158.249374,95.389412 164.050949,92.248383 
	C168.232834,89.984253 172.739746,88.106453 177.033554,91.734955 
	C181.410934,95.434082 180.347427,99.919350 177.305801,104.931610 
	C183.025833,103.071487 186.668991,104.722198 188.538651,109.610825 
	C190.367447,114.392601 187.810028,117.803665 184.223328,120.208122 
	C179.277756,123.523521 173.968353,126.296150 168.512207,129.513535 
M176.370514,115.534943 
	C174.387909,109.589050 173.607147,109.243111 169.215164,112.532364 
	C170.308731,114.466568 171.412155,116.418182 172.774475,118.827713 
	C174.124191,117.805099 175.117706,117.052361 176.370514,115.534943 
M168.111404,106.790329 
	C171.077515,105.015648 170.055862,102.652992 168.286301,101.170097 
	C167.194702,100.255325 164.978561,100.682503 163.267288,100.507202 
	C163.096649,101.020844 162.925995,101.534477 162.755341,102.048119 
	C164.301590,103.724182 165.847839,105.400238 168.111404,106.790329 
z"/>
<path fill="#FAFAFA" opacity="1.000000" stroke="none" 
	d="
M355.822632,116.399490 
	C357.521118,113.100899 358.977509,110.102898 360.735779,106.483566 
	C366.507446,111.867043 371.735229,116.233246 376.350616,121.171768 
	C382.724731,127.992203 381.958618,135.452225 374.688599,143.232513 
	C367.569183,150.851608 360.423981,152.086472 353.188843,146.350464 
	C347.868774,142.132690 343.038940,137.296478 338.261200,132.980286 
	C344.195831,127.401733 349.888184,122.050903 355.822632,116.399490 
M363.255280,126.677025 
	C360.092621,130.176529 356.929962,133.676041 353.872681,137.058945 
	C356.439209,140.557236 358.609375,140.396729 360.982666,137.567505 
	C363.317688,134.783859 365.771576,132.087433 368.325836,129.503571 
	C371.024597,126.773567 370.525543,124.701706 366.942657,122.580734 
	C365.912018,123.734642 364.832031,124.943771 363.255280,126.677025 
z"/>
<path fill="#F8F8F8" opacity="1.000000" stroke="none" 
	d="
M209.225708,423.370972 
	C213.982544,413.119904 218.680893,403.279541 223.429367,393.334167 
	C223.558975,393.314667 223.897751,393.180145 224.207153,393.229523 
	C229.258255,394.036011 235.814301,393.256378 238.912643,396.160919 
	C241.781998,398.850708 240.841934,405.507965 241.781189,410.379211 
	C242.767197,415.493042 244.145050,420.534241 245.034256,425.662262 
	C245.359161,427.536011 244.772247,429.567902 244.559509,432.006897 
	C238.511017,431.214813 232.836243,430.471680 225.587479,429.522400 
	C227.197342,426.595154 228.522568,424.401611 229.606537,422.094788 
	C229.975739,421.309082 229.956390,419.478058 229.743134,419.416809 
	C227.914307,418.891083 226.004120,418.557556 224.106232,418.486206 
	C223.887375,418.477966 223.233261,420.488159 223.408173,421.448242 
	C223.842178,423.830597 224.639191,426.146851 225.539703,429.386597 
	C219.801956,428.725159 215.502914,428.451538 211.329010,427.579163 
	C210.385086,427.381866 209.876282,425.102631 209.225708,423.370972 
z"/>
<path fill="#F8F8F8" opacity="1.000000" stroke="none" 
	d="
M133.927490,361.402039 
	C131.904877,363.763550 130.081543,364.960480 128.442001,361.060638 
	C126.153244,363.110443 124.321861,364.750610 122.269585,366.588623 
	C123.447609,367.934235 124.501137,369.137634 125.723930,370.534363 
	C127.705910,368.982361 129.501724,367.576172 131.417526,366.075989 
	C133.616486,368.534119 135.720123,370.885681 138.133224,373.583160 
	C134.530685,376.827850 131.009476,379.999268 127.145325,383.479614 
	C120.228294,375.819397 113.459373,368.323242 105.909805,359.962524 
	C117.423721,354.877380 126.277069,347.176575 132.402161,335.898865 
	C139.952240,344.268890 146.719315,351.770874 153.688995,359.497467 
	C150.217880,362.657501 146.923264,365.656830 143.391434,368.872131 
	C141.077911,366.277863 138.903427,363.839508 136.575790,361.229431 
	C138.168854,359.710510 139.468369,358.471497 141.079468,356.935425 
	C139.957214,355.635498 138.919754,354.433838 137.591873,352.895752 
	C135.911835,354.333740 134.333633,355.684570 132.603577,357.165375 
	C133.140793,358.540619 133.635788,359.807800 133.927490,361.402039 
z"/>
<path fill="#F9F9F9" opacity="1.000000" stroke="none" 
	d="
M384.800598,347.621185 
	C389.046906,349.902802 393.060089,352.471436 397.587769,355.369385 
	C390.563568,363.668427 384.046631,371.368164 376.737671,380.003662 
	C369.965271,369.457428 361.379517,361.376312 349.236328,357.133362 
	C356.499023,348.573914 363.053375,340.849243 369.916107,332.761169 
	C373.432556,335.752136 376.803009,338.618896 380.485107,341.750793 
	C378.210175,344.428741 376.102081,346.910339 373.884430,349.520874 
	C372.132965,348.131836 370.730835,347.019836 369.074249,345.706055 
	C367.886902,346.980072 366.794586,348.152100 365.413422,349.634094 
	C367.189453,351.176300 368.787354,352.563812 370.603668,354.140930 
	C371.652527,353.331146 372.641052,352.567902 374.565979,351.081726 
	C375.378540,353.303101 376.060547,355.167572 376.742554,357.032043 
	C376.194244,357.302216 375.645935,357.572418 375.097626,357.842621 
	C376.945557,359.470490 378.793457,361.098389 381.020142,363.059967 
	C382.258881,361.639008 383.363403,360.371979 384.586823,358.968567 
	C382.735962,357.240662 381.192200,355.799438 379.343536,354.073578 
	C381.168701,351.919525 382.868103,349.913879 384.800598,347.621185 
z"/>
<path fill="#F8F8F8" opacity="1.000000" stroke="none" 
	d="
M408.211334,338.131165 
	C405.821381,341.309509 403.610748,344.167511 401.328796,347.117737 
	C398.350342,345.568085 395.882721,344.284180 392.950836,342.758728 
	C395.419800,339.672607 394.780914,334.716858 400.037964,333.693573 
	C400.786072,333.547943 401.122986,331.289825 401.650208,330.009460 
	C400.391663,330.157898 398.860077,329.903168 397.928375,330.534149 
	C395.602631,332.109436 393.688232,334.293793 391.357422,335.859528 
	C386.742340,338.959778 382.432190,338.661102 378.018799,335.168030 
	C374.141510,332.099213 373.120850,328.096954 374.941895,323.589050 
	C376.299377,320.228790 377.769470,316.830933 379.756378,313.824554 
	C384.564453,306.549591 385.178467,306.535980 393.563995,311.564270 
	C390.677307,315.441132 387.852692,319.234619 385.028107,323.028076 
	C385.496887,323.408783 385.965668,323.789459 386.434448,324.170166 
	C389.226379,321.834015 391.932343,319.384430 394.830597,317.188599 
	C399.044434,313.996124 403.447510,314.136322 407.792023,317.016785 
	C411.840149,319.700806 413.573792,323.525360 412.283936,328.192017 
	C411.368530,331.503967 409.714844,334.611877 408.211334,338.131165 
z"/>
<path fill="#F8F8F8" opacity="1.000000" stroke="none" 
	d="
M153.216080,390.289825 
	C151.839981,387.322144 150.347244,384.765594 148.882492,382.193146 
	C145.677887,376.565125 146.067352,371.846558 150.070068,367.567963 
	C153.707153,363.680206 158.469879,362.965485 164.090454,366.636780 
	C168.953995,369.813599 173.169281,373.982910 177.712097,377.747467 
	C175.499390,380.928864 174.087631,382.958618 171.972458,385.999756 
	C168.369415,382.443481 165.018936,379.136505 161.668457,375.829498 
	C161.208282,376.148193 160.748108,376.466919 160.287933,376.785614 
	C161.686066,379.105011 163.008255,381.474426 164.497055,383.734100 
	C168.414536,389.679993 168.631363,393.766449 165.152451,398.378204 
	C161.935028,402.643280 157.976746,403.959869 152.862808,402.250580 
	C145.633194,399.834137 140.558624,394.660614 135.577042,388.642761 
	C137.339401,386.149292 139.017761,383.774689 140.979645,380.998932 
	C143.940109,383.922211 148.782898,384.318176 149.164215,389.557373 
	C149.198578,390.029449 151.736740,390.319275 153.216080,390.289825 
z"/>
<path fill="#F7F7F7" opacity="1.000000" stroke="none" 
	d="
M319.223663,83.920761 
	C320.974213,84.592819 322.343414,85.155426 324.124725,85.887360 
	C323.152802,97.655365 322.182770,109.400803 321.159424,121.791344 
	C315.044220,119.442574 309.974457,117.495346 303.352264,114.951859 
	C305.493439,112.559280 307.240265,110.753532 308.791443,108.792969 
	C309.318848,108.126373 309.709106,106.374901 309.558289,106.297630 
	C307.873108,105.434288 306.092224,104.717453 304.265625,104.228111 
	C304.067444,104.175018 303.105377,105.773857 303.042297,106.645851 
	C302.867859,109.056854 302.981873,111.488724 302.981873,114.748741 
	C297.302887,112.534882 292.749847,110.759956 287.333618,108.648544 
	C294.853516,98.917488 301.986206,89.687431 309.374573,80.126564 
	C312.457733,81.326492 315.650024,82.568901 319.223663,83.920761 
z"/>
<path fill="#F9F9F9" opacity="1.000000" stroke="none" 
	d="
M144.803955,146.199341 
	C145.008194,147.395416 145.350204,148.704453 144.861404,149.209732 
	C141.870300,152.301620 138.690811,155.211288 134.921112,158.804031 
	C129.278763,147.980408 123.873871,137.612305 118.551048,127.401619 
	C122.276909,123.410652 125.871834,119.559937 129.498215,115.675529 
	C140.125412,121.809357 150.312668,127.689255 159.914993,133.231537 
	C155.662460,137.822647 151.859634,141.928253 147.131989,147.032288 
	C145.923126,144.108734 145.110870,141.788101 143.994720,139.624176 
	C143.562012,138.785294 141.917221,137.613953 141.719269,137.765182 
	C140.307205,138.843887 139.059952,140.174606 137.977951,141.591385 
	C137.873108,141.728668 139.129089,143.186172 139.959320,143.694473 
	C141.407639,144.581207 143.016281,145.206131 144.803955,146.199341 
z"/>
<path fill="#F7F7F7" opacity="1.000000" stroke="none" 
	d="
M367.394226,157.452698 
	C374.348297,155.395660 380.419891,152.312714 385.676575,147.888626 
	C388.573822,145.450287 390.928864,142.367737 393.997772,139.071442 
	C399.922699,147.977402 405.382812,156.184708 410.975403,164.591125 
	C407.178619,167.119034 403.621094,169.487656 399.821411,172.017517 
	C397.910919,169.179657 396.189423,166.622482 394.350555,163.891022 
	C396.112488,162.571091 397.531891,161.507751 399.150909,160.294846 
	C398.263733,158.861694 397.414490,157.489792 396.460876,155.949326 
	C394.624664,157.117859 392.960876,158.176682 392.229340,158.642212 
	C391.417633,161.478775 390.834991,163.514801 390.252350,165.550827 
	C389.614532,165.677567 388.976746,165.804321 388.338928,165.931061 
	C387.680847,164.870789 387.022766,163.810501 386.297760,162.642410 
	C384.049866,164.124817 382.141205,165.383530 379.935944,166.837799 
	C380.824799,168.326721 381.619293,169.657593 382.566589,171.244415 
	C384.605377,170.037048 386.423035,168.960648 388.606018,167.667923 
	C390.374908,170.298111 392.103180,172.867874 394.086670,175.817108 
	C390.178894,178.428055 386.359375,180.980026 382.166870,183.781219 
	C376.821930,175.763412 371.565216,167.934937 366.431183,160.026810 
	C366.140320,159.578812 366.856049,158.477325 367.394226,157.452698 
z"/>
<path fill="#F9F9F9" opacity="1.000000" stroke="none" 
	d="
M268.545288,106.736168 
	C257.341278,102.969810 254.048325,96.227951 256.984528,83.759392 
	C259.248962,74.143486 265.821869,70.147400 276.627228,71.816452 
	C276.956512,71.867317 277.288544,71.900970 277.617065,71.956085 
	C288.254059,73.740776 289.880005,76.339737 286.845490,87.452507 
	C283.697205,87.084656 280.464111,86.706894 277.013092,86.303673 
	C277.013092,84.848579 277.340485,83.573708 276.930054,82.614548 
	C276.418884,81.419937 275.298950,80.485825 274.441864,79.439240 
	C273.314819,80.418991 271.452667,81.236458 271.194061,82.407928 
	C270.300323,86.456322 269.740601,90.617348 269.543091,94.758835 
	C269.476593,96.153885 270.870056,97.618546 271.596222,99.051392 
	C272.853546,97.914734 274.212433,96.867004 275.321533,95.600525 
	C275.810059,95.042648 275.790802,94.040062 276.098572,92.873604 
	C279.370789,93.296738 282.606720,93.715179 285.740417,94.120407 
	C285.929596,94.691216 286.129242,94.994476 286.112091,95.284920 
	C285.384766,107.587601 284.010651,108.509521 268.545288,106.736168 
z"/>
<path fill="#F8F8F8" opacity="1.000000" stroke="none" 
	d="
M94.995735,342.079285 
	C92.555771,337.509216 90.258385,333.284271 87.699905,328.579163 
	C90.643539,328.069794 92.183571,323.104218 95.971680,327.064819 
	C96.208260,327.312164 97.252930,327.001251 97.792816,326.710724 
	C103.176895,323.813446 108.533852,320.865753 113.771744,316.745209 
	C112.298866,316.565735 110.825981,316.386261 109.031174,316.167572 
	C108.135750,314.519470 107.043266,312.508667 105.755180,310.137848 
	C108.937393,308.382843 111.954788,306.718719 115.474991,304.777313 
	C120.954407,314.880737 126.361511,324.850830 131.950211,335.155731 
	C128.662125,336.964844 125.651009,338.621552 122.451714,340.381775 
	C120.522217,337.285400 116.683693,334.755951 122.695038,330.012238 
	C119.958321,330.238617 118.866585,330.037842 118.087868,330.441254 
	C113.516525,332.809540 108.977486,335.248993 104.532166,337.843719 
	C103.712059,338.322418 103.504387,339.747498 102.780304,340.515350 
	C101.346306,342.036041 99.869606,343.596558 98.124969,344.681244 
	C97.744293,344.917938 96.165382,343.227356 94.995735,342.079285 
z"/>
<path fill="#F7F7F7" opacity="1.000000" stroke="none" 
	d="
M206.134506,388.899384 
	C208.325317,389.768250 210.145966,390.523499 212.390579,391.454620 
	C211.080231,394.804749 209.841217,397.972504 208.390823,401.680664 
	C205.933136,400.737213 203.686722,399.874817 201.873291,399.178680 
	C201.533859,397.482361 201.286926,396.248352 201.039993,395.014343 
	C200.112137,395.908630 198.816238,396.636780 198.323776,397.727600 
	C196.689682,401.347260 195.254486,405.065430 193.925629,408.810608 
	C193.223663,410.788971 190.782578,412.777100 194.099152,415.082153 
	C194.704346,415.502747 193.080536,419.130524 192.336411,421.816681 
	C186.019089,419.299591 180.262421,417.005920 174.128006,414.561737 
	C176.030624,412.207947 174.356323,407.504578 179.562561,408.336212 
	C179.835312,408.379791 180.374039,407.721283 180.545288,407.292358 
	C182.894012,401.410065 185.199860,395.510651 187.516251,389.615448 
	C187.067307,389.302216 186.618378,388.988983 186.169434,388.675781 
	C185.134628,389.580322 184.099823,390.484894 182.910263,391.524719 
	C180.937912,390.721924 178.808380,389.855133 176.342514,388.851471 
	C177.694839,385.419250 178.940079,382.258820 180.394852,378.566589 
	C188.990692,382.029114 197.377502,385.407410 206.134506,388.899384 
z"/>
<path fill="#F27B09" opacity="1.000000" stroke="none" 
	d="
M434.073547,254.990585 
	C433.120392,255.682800 432.245239,256.392944 431.434937,256.325378 
	C428.289703,256.063080 427.070435,257.013641 427.944244,260.343262 
	C428.237305,261.459961 427.853485,263.399231 427.060760,263.977142 
	C426.245850,264.571167 424.285492,264.399231 423.297821,263.793640 
	C420.765869,262.241119 419.476685,262.590118 418.503723,265.478699 
	C418.136688,266.568329 416.721222,267.955566 415.728180,268.001282 
	C414.726868,268.047363 413.290131,266.807373 412.690002,265.760559 
	C411.270569,263.284454 410.020691,262.949615 407.587921,264.692719 
	C406.298492,265.616608 404.157166,265.351532 401.722260,265.728058 
	C402.965973,260.545380 403.966461,257.006500 397.357025,258.317902 
	C394.872467,258.810883 393.700958,255.738815 395.993591,253.417923 
	C398.493927,250.886688 398.162964,249.322006 394.936737,247.858948 
	C394.030945,247.448166 393.220764,245.957306 393.129974,244.896576 
	C393.058716,244.064041 393.958221,242.737213 394.780396,242.308136 
	C399.154175,240.025574 399.192780,240.099564 396.641357,235.566055 
	C397.660583,232.936798 399.064331,231.461670 402.241699,232.974716 
	C402.842438,233.260757 404.498260,232.049072 405.232635,231.166733 
	C406.309418,229.873062 406.994324,228.253220 407.846222,226.772369 
	C409.206696,227.615662 410.563202,228.465500 411.929626,229.299011 
	C412.463745,229.624802 413.020203,229.913910 413.523224,230.195511 
	C419.120026,224.178040 419.610352,224.296478 423.075653,232.622025 
	C425.730988,231.776382 428.979248,229.005508 430.724640,234.202072 
	C430.206543,235.468750 429.545685,237.084518 428.890686,238.686020 
	C436.990753,242.397110 437.144165,243.061966 431.545258,247.586502 
	C432.449799,250.010651 433.315582,252.330948 434.073547,254.990585 
M424.849182,240.871124 
	C420.427368,235.451187 415.832001,233.548798 410.597046,235.380219 
	C405.905151,237.021637 402.685394,240.220551 401.967133,245.365524 
	C401.192047,250.917465 403.648132,255.623993 408.518524,258.222168 
	C413.157196,260.696716 418.272064,260.050720 422.367584,256.473053 
	C426.632202,252.747696 427.503723,248.073364 424.849182,240.871124 
z"/>
<path fill="#F27B09" opacity="1.000000" stroke="none" 
	d="
M83.937744,230.909256 
	C85.082687,232.257233 86.010826,233.290512 86.357483,233.676437 
	C89.078575,232.221863 91.129753,230.274429 93.019958,230.419785 
	C94.241776,230.513763 95.227959,233.671555 96.470589,235.702988 
	C104.421951,235.691269 104.421951,235.691269 102.908302,243.037415 
	C103.746353,243.316528 104.690208,243.489426 105.486160,243.929718 
	C106.632713,244.563919 108.312012,245.217239 108.577415,246.187088 
	C108.845093,247.165283 107.987907,249.047714 107.055016,249.643021 
	C104.539337,251.248352 104.137695,252.446426 106.583427,254.532135 
	C107.456558,255.276733 108.113899,257.203156 107.758698,258.190369 
	C107.423363,259.122314 105.635399,260.049835 104.474281,260.065247 
	C101.473907,260.105072 100.735336,261.006805 101.434937,264.032440 
	C101.788719,265.562439 100.605812,267.447754 99.960670,269.727203 
	C96.003937,267.079285 93.099113,264.166046 91.628654,270.625671 
	C91.103355,272.933289 87.779785,273.204712 86.490349,270.312317 
	C84.956078,266.870728 83.363503,266.402740 80.612625,269.014496 
	C79.955132,269.638763 78.251724,270.045319 77.652817,269.637177 
	C76.785660,269.046234 75.892395,267.523651 76.050407,266.571045 
	C76.644806,262.987488 75.595413,261.559570 71.828941,262.035065 
	C70.886948,262.154022 69.292793,261.203949 68.892883,260.333984 
	C68.515068,259.512085 68.984863,257.871063 69.656944,257.077301 
	C71.591110,254.793030 71.970062,253.215942 68.748840,251.771713 
	C65.853027,250.473404 65.963211,246.869202 67.984703,246.426727 
	C73.958328,245.119171 72.581650,242.563599 70.203667,239.755051 
	C71.409378,233.513657 75.654449,237.895462 78.417015,236.888046 
	C79.558708,234.277039 77.737137,228.999496 83.937744,230.909256 
M99.031303,256.129822 
	C101.125053,249.764420 99.947144,244.872040 95.475655,241.361893 
	C91.444809,238.197647 85.725731,237.779129 81.508888,240.339752 
	C77.120651,243.004486 74.729103,247.813309 75.461769,252.499039 
	C76.277016,257.712860 80.001251,262.055450 84.750435,262.994446 
	C90.774658,264.185577 95.487946,262.134369 99.031303,256.129822 
z"/>
<path fill="#F9F9F9" opacity="1.000000" stroke="none" 
	d="
M105.830978,172.165329 
	C102.145409,170.105301 99.474609,166.874054 94.834831,167.512146 
	C93.514374,167.693741 91.886589,165.640594 90.256111,164.512924 
	C95.084351,157.088272 99.778618,149.869644 104.687096,142.321609 
	C108.015137,144.477600 111.047859,146.442276 114.293747,148.545029 
	C112.934464,150.702316 111.707321,152.649887 110.318687,154.853745 
	C108.282585,154.407669 105.245598,151.486282 104.860146,156.609436 
	C106.569633,157.717606 108.363914,158.880753 110.365128,160.178055 
	C111.604439,158.475952 112.751816,156.900131 114.181099,154.937119 
	C115.473412,155.706253 116.783478,156.485962 118.317108,157.398727 
	C117.139664,159.361237 116.139130,161.028885 114.886925,163.115997 
	C116.848587,164.402176 118.729332,165.635300 120.886147,167.049438 
	C122.070328,165.540665 123.163155,164.148315 124.470985,162.482010 
	C126.435402,163.766068 128.328720,165.003632 130.372269,166.339417 
	C126.657028,172.065353 123.135826,177.492264 119.269455,183.451126 
	C114.782967,179.657196 110.463104,176.004181 105.830978,172.165329 
z"/>
<path fill="#F7F7F7" opacity="1.000000" stroke="none" 
	d="
M245.934692,82.140732 
	C246.980164,89.850235 248.006836,97.102203 249.094772,104.786926 
	C243.929825,105.178299 238.537216,105.586929 231.960251,106.085297 
	C234.899628,94.235794 234.729858,82.932159 229.675262,71.443855 
	C236.016449,71.043457 241.252090,70.712860 247.996429,70.287010 
	C247.285492,73.248329 246.624130,75.732529 246.115067,78.247566 
	C245.889771,79.360619 245.972839,80.536079 245.934692,82.140732 
z"/>
<path fill="#ECECEC" opacity="1.000000" stroke="none" 
	d="
M126.269127,111.555191 
	C123.923096,115.747459 121.699928,119.590889 119.476761,123.434311 
	C115.918739,115.397072 122.246529,112.982544 126.677254,108.200775 
	C126.516632,109.893089 126.454308,110.549713 126.269127,111.555191 
z"/>
<path fill="#FFFEFE" opacity="1.000000" stroke="none" 
	d="
M289.782410,199.674316 
	C288.854980,211.599197 287.888947,223.521255 287.012054,235.449860 
	C286.282532,245.374359 285.657684,255.306580 284.940826,265.910950 
	C273.333893,259.352570 262.243652,253.086105 250.372818,246.378586 
	C250.372818,253.911301 250.372818,260.743713 250.372818,268.534698 
	C236.990921,260.955231 224.486954,253.873032 211.329773,246.420853 
	C211.329773,253.840851 211.329773,260.549683 211.329773,268.292938 
	C198.106277,260.812286 185.657166,253.769714 172.515900,246.335571 
	C169.544586,276.826111 166.652054,306.508423 163.740067,336.390198 
	C123.500580,298.898132 111.843849,223.194168 159.056793,169.861588 
	C206.557053,116.204445 290.033264,114.368462 338.966095,165.427368 
	C389.742676,218.410141 380.603210,296.549072 337.584229,337.251099 
	C337.126129,331.264587 336.645081,325.716949 336.285767,320.161438 
	C334.157471,287.255463 332.066895,254.347031 329.940277,221.440918 
	C329.489349,214.463776 328.941528,207.492889 328.368591,199.710297 
	C328.298828,196.161102 328.298828,193.420731 328.298828,190.704742 
	C315.030609,190.704742 302.328339,190.704742 289.008057,190.704742 
	C289.282837,193.887558 289.532623,196.780945 289.782410,199.674316 
M300.071106,166.447388 
	C302.086304,170.246307 304.005402,174.101257 306.169800,177.813171 
	C306.907745,179.078751 308.262451,179.984650 309.335327,181.054886 
	C310.097198,179.704910 311.398468,178.405411 311.530273,176.996490 
	C312.205688,169.779572 310.349213,163.192108 306.017578,157.301514 
	C299.049652,147.825821 288.820862,147.060303 278.585327,147.757553 
	C263.890381,148.758591 251.027512,146.389801 242.500305,132.871048 
	C241.972961,132.035019 240.947250,131.513351 239.569901,130.354446 
	C239.379089,132.097534 239.041656,133.053299 239.216675,133.903625 
	C241.440979,144.711304 246.940384,153.584839 257.721069,156.738770 
	C265.851532,159.117371 274.689209,159.280136 283.250183,159.917923 
	C289.378693,160.374481 295.182800,161.065048 300.071106,166.447388 
z"/>
<path fill="#FFFEFE" opacity="1.000000" stroke="none" 
	d="
M252.835007,341.836060 
	C279.211823,341.836060 305.588623,341.836060 332.648956,341.836060 
	C290.049347,382.694977 215.941605,385.349335 169.204178,341.985321 
	C185.645309,341.985321 201.326828,341.985321 217.937805,341.987823 
	C230.189850,341.938904 241.512421,341.887451 252.835007,341.836060 
z"/>
<path fill="#040200" opacity="1.000000" stroke="none" 
	d="
M252.838974,341.377686 
	C241.512421,341.887451 230.189850,341.938904 218.396622,341.914673 
	C217.925980,330.527496 217.925980,319.216034 217.925980,307.528931 
	C229.520203,307.528931 240.882812,307.528931 252.842941,307.528931 
	C252.842941,318.724121 252.842941,329.821747 252.838974,341.377686 
z"/>
<path fill="#101010" opacity="1.000000" stroke="none" 
	d="
M290.194092,199.622437 
	C289.532623,196.780945 289.282837,193.887558 289.008057,190.704742 
	C302.328339,190.704742 315.030609,190.704742 328.298828,190.704742 
	C328.298828,193.420731 328.298828,196.161102 328.108704,199.289856 
	C315.480988,199.642334 303.043396,199.606445 290.194092,199.622437 
z"/>
<path fill="#121212" opacity="1.000000" stroke="none" 
	d="
M340.175201,380.167908 
	C339.038177,378.507935 338.111328,377.155701 336.357361,374.596649 
	C339.061432,374.596649 341.182709,373.976990 342.307861,374.770233 
	C343.441864,375.569702 343.586639,377.772369 344.164856,379.360229 
	C342.905029,379.732025 341.645233,380.103851 340.175201,380.167908 
z"/>
<path fill="#0D0D0D" opacity="1.000000" stroke="none" 
	d="
M266.726776,405.703247 
	C267.168274,404.201080 267.668976,403.111755 268.169708,402.022430 
	C269.487976,402.710632 271.784515,403.208130 271.962036,404.118744 
	C272.943420,409.152802 273.689331,414.278503 273.853638,419.394104 
	C273.894928,420.679413 271.503418,422.042847 270.229950,423.370392 
	C269.757507,423.158508 269.285065,422.946594 268.812622,422.734711 
	C268.137085,417.195160 267.461517,411.655579 266.726776,405.703247 
z"/>
<path fill="#141414" opacity="1.000000" stroke="none" 
	d="
M208.005035,90.267494 
	C201.431564,92.318512 204.434586,86.856239 202.758850,84.785522 
	C207.938400,83.582558 208.755478,84.429787 208.005035,90.267494 
z"/>
<path fill="#0B0B0B" opacity="1.000000" stroke="none" 
	d="
M306.832153,404.182068 
	C305.760010,401.333771 304.482269,398.919098 304.013519,396.356476 
	C303.807709,395.231598 304.972961,393.351868 306.052399,392.689209 
	C306.677917,392.305176 309.033478,393.349548 309.469299,394.283569 
	C311.498901,398.633575 313.316040,403.110260 314.770355,407.681213 
	C315.122162,408.786987 313.805450,410.423584 313.255981,411.816101 
	C311.828369,411.091858 310.009094,410.690979 309.074799,409.559418 
	C307.969482,408.220734 307.627899,406.251495 306.832153,404.182068 
z"/>
<path fill="#151515" opacity="1.000000" stroke="none" 
	d="
M176.240875,115.917282 
	C175.117706,117.052361 174.124191,117.805099 172.774475,118.827713 
	C171.412155,116.418182 170.308731,114.466568 169.215164,112.532364 
	C173.607147,109.243111 174.387909,109.589050 176.240875,115.917282 
z"/>
<path fill="#141414" opacity="1.000000" stroke="none" 
	d="
M167.752747,106.933311 
	C165.847839,105.400238 164.301590,103.724182 162.755341,102.048119 
	C162.925995,101.534477 163.096649,101.020844 163.267288,100.507202 
	C164.978561,100.682503 167.194702,100.255325 168.286301,101.170097 
	C170.055862,102.652992 171.077515,105.015648 167.752747,106.933311 
z"/>
<path fill="#0D0D0D" opacity="1.000000" stroke="none" 
	d="
M363.503662,126.414963 
	C364.832031,124.943771 365.912018,123.734642 366.942657,122.580734 
	C370.525543,124.701706 371.024597,126.773567 368.325836,129.503571 
	C365.771576,132.087433 363.317688,134.783859 360.982666,137.567505 
	C358.609375,140.396729 356.439209,140.557236 353.872681,137.058945 
	C356.929962,133.676041 360.092621,130.176529 363.503662,126.414963 
z"/>
<path fill="#040200" opacity="1.000000" stroke="none" 
	d="
M424.997498,241.221817 
	C427.503723,248.073364 426.632202,252.747696 422.367584,256.473053 
	C418.272064,260.050720 413.157196,260.696716 408.518524,258.222168 
	C403.648132,255.623993 401.192047,250.917465 401.967133,245.365524 
	C402.685394,240.220551 405.905151,237.021637 410.597046,235.380219 
	C415.832001,233.548798 420.427368,235.451187 424.997498,241.221817 
z"/>
<path fill="#040200" opacity="1.000000" stroke="none" 
	d="
M98.882111,256.495850 
	C95.487946,262.134369 90.774658,264.185577 84.750435,262.994446 
	C80.001251,262.055450 76.277016,257.712860 75.461769,252.499039 
	C74.729103,247.813309 77.120651,243.004486 81.508888,240.339752 
	C85.725731,237.779129 91.444809,238.197647 95.475655,241.361893 
	C99.947144,244.872040 101.125053,249.764420 98.882111,256.495850 
z"/>
<path fill="#F7C606" opacity="1.000000" stroke="none" 
	d="
M299.842957,166.164001 
	C295.182800,161.065048 289.378693,160.374481 283.250183,159.917923 
	C274.689209,159.280136 265.851532,159.117371 257.721069,156.738770 
	C246.940384,153.584839 241.440979,144.711304 239.216675,133.903625 
	C239.041656,133.053299 239.379089,132.097534 239.569901,130.354446 
	C240.947250,131.513351 241.972961,132.035019 242.500305,132.871048 
	C251.027512,146.389801 263.890381,148.758591 278.585327,147.757553 
	C288.820862,147.060303 299.049652,147.825821 306.017578,157.301514 
	C310.349213,163.192108 312.205688,169.779572 311.530273,176.996490 
	C311.398468,178.405411 310.097198,179.704910 309.335327,181.054901 
	C308.262451,179.984650 306.907745,179.078751 306.169800,177.813171 
	C304.005402,174.101257 302.086304,170.246307 299.842957,166.164001 
z"/>
</svg>