<svg width="30" height="30" fill="#0288d1" viewBox="0 0 24 24" xmlns="http://www.w3.org/2000/svg">
  <path d="M18.067 2.182a.625.625 0 0 0-.884 0l-2.058 2.059 4.634 4.634 2.058-2.058a.623.623 0 0 0 0-.885l-3.75-3.75Zm.808 7.576L14.24 5.125 6.116 13.25h.259a.625.625 0 0 1 .625.624v.625h.625a.625.625 0 0 1 .625.625v.625h.625a.625.625 0 0 1 .625.626V17h.625a.625.625 0 0 1 .625.625v.258l8.125-8.125ZM9.54 19.093a.625.625 0 0 1-.04-.218v-.625h-.625a.625.625 0 0 1-.625-.625V17h-.625A.625.625 0 0 1 7 16.375v-.626h-.625a.625.625 0 0 1-.625-.625V14.5h-.625a.624.624 0 0 1-.219-.04l-.224.223a.625.625 0 0 0-.137.21l-2.5 6.25a.625.625 0 0 0 .812.813l6.25-2.5a.625.625 0 0 0 .21-.138l.223-.223Z"></path>
</svg>